<svg xmlns="http://www.w3.org/2000/svg" width="258.391" height="153.45" viewBox="-0.010339401307277285,0,258.41167001355205,153.4499969482422" preserveAspectRatio="none">
    <path d="M157.526,158.46v-5.905h1.2v5.876a2.74,2.74,0,1,0,5.474,0v-5.876h1.2v5.89a3.938,3.938,0,0,1-7.876.015Zm-3.741,3.75-3.662-4.343-.971,1.1v3.244h-1.2v-9.657h1.2v5l4.271-5h1.505l-4.025,4.59,4.373,5.067Zm-9.343,0-.855-2.143h-4.805l-.855,2.143h-1.375l3.88-9.656h1.491l3.9,9.656ZM139.13,159h4.1l-2.04-5.2Zm-11.559,3.213v-9.657h4.3a2.436,2.436,0,0,1,2.708,2.461,2.2,2.2,0,0,1-1.694,2.215,2.411,2.411,0,0,1,1.882,2.375,2.517,2.517,0,0,1-2.795,2.606Zm1.2-1.072h2.955a1.6,1.6,0,0,0,1.8-1.664,1.64,1.64,0,0,0-1.8-1.665h-2.955Zm0-4.4h2.9a1.5,1.5,0,0,0,1.664-1.549,1.518,1.518,0,0,0-1.664-1.564h-2.9Zm86.962-24.806a1.317,1.317,0,0,0-1.216.764h-.4v-5.321h.509c.877,3.056,2.887,4.557,5.151,4.557,2.01,0,2.831-1.076,2.831-2.179,0-1.019-.793-2.378-4.161-3.425-2.518-.792-4.33-2.547-4.33-4.7,0-2.716,2.292-4.274,4.981-4.274a13.892,13.892,0,0,1,3.708.764,1.387,1.387,0,0,0,1.047-.764h.509v5.151h-.509c-.821-2.575-2.463-4.387-4.84-4.387-1.244,0-2.349.68-2.349,1.9,0,3.2,8.774,2.179,8.774,7.981,0,2.829-2.151,4.7-5.576,4.7A14.7,14.7,0,0,1,215.733,131.931Zm-21.64.764c-.255-.651-.594-.991-1.1-.991-.651,0-2.547.991-5.208.991-4.7,0-8.009-3.368-8.009-7.414,0-4.5,3.227-7.925,8.405-7.925,2.151,0,3.962.764,4.812.764a1.37,1.37,0,0,0,1.1-.594h.509v4.556h-.594c-1.161-2.179-2.8-3.962-5.462-3.962-2.829,0-4.811,2.124-4.811,6.905,0,5.208,2.461,6.906,4.669,6.906,2.4,0,4.33-2.01,5.6-4.642h.594V132.7Zm-18.406,0-11.349-12.848v9.593c0,1.726.538,2.094,2.207,2.094v.764h-5.263v-.764c1.444,0,2.038-.282,2.038-3.2v-8.122c0-1.473-.255-1.7-1.981-1.7v-.764h5.688l8.489,9.736V120.5c0-1.726-.991-1.981-2.32-1.981v-.764h5.263v.764c-.962,0-1.924.2-1.924,2.009V132.7Zm-71.454-.764a1.319,1.319,0,0,0-1.217.764h-.4v-5.321h.509c.877,3.056,2.887,4.557,5.151,4.557,2.01,0,2.831-1.076,2.831-2.179,0-1.019-.793-2.378-4.161-3.425-2.518-.792-4.33-2.547-4.33-4.7,0-2.716,2.292-4.274,4.981-4.274a13.9,13.9,0,0,1,3.709.764,1.387,1.387,0,0,0,1.046-.764h.509v5.151h-.509c-.821-2.575-2.462-4.387-4.839-4.387-1.245,0-2.349.68-2.349,1.9,0,3.2,8.773,2.179,8.773,7.981,0,2.829-2.151,4.7-5.576,4.7A14.689,14.689,0,0,1,104.233,131.931Zm93.006.368v-.764c1.5,0,1.839-.113,1.839-1.16v-10.7c0-1.048-.339-1.16-1.839-1.16v-.764h12.848l1.443,3.99h-.594c-2.065-2.32-3.623-3.226-6.9-3.226-1.076,0-1.33.112-1.33.933v4.925h.962c2.688,0,3.65-.793,4.246-2.944h.594v6.481h-.594c-.425-2.065-1.614-2.773-4.246-2.773H202.7v5.518c0,.594.255.878,2.207.878,2.944,0,4.585-.764,6.227-3.481h.679l-1.132,4.246Zm-52.335,0v-.764c1.5,0,1.84-.113,1.84-1.16v-10.7c0-1.048-.339-1.16-1.84-1.16v-.764h12.849l1.443,3.99H158.6c-2.065-2.32-3.623-3.226-6.905-3.226-1.076,0-1.33.112-1.33.933v4.925h.962c2.689,0,3.65-.793,4.246-2.944h.594v6.481h-.594c-.425-2.065-1.614-2.773-4.246-2.773h-.962v5.518c0,.594.255.878,2.207.878,2.944,0,4.585-.764,6.227-3.481h.679l-1.132,4.246Zm-28.264,0v-.764c1.5,0,1.84-.113,1.84-1.16v-10.7c0-1.048-.339-1.16-1.84-1.16v-.764h7.3v.764c-1.5,0-1.84.112-1.84,1.16v10.7c0,1.046.339,1.16,1.84,1.16v.764Zm-30.951,0v-.764c1.5,0,1.84-.113,1.84-1.16v-10.7c0-1.048-.339-1.16-1.84-1.16v-.764H98.537l1.443,3.99h-.594c-2.066-2.32-3.623-3.226-6.905-3.226-1.076,0-1.33.112-1.33.933v4.925h.962c2.688,0,3.65-.793,4.246-2.944h.594v6.481h-.594c-.425-2.065-1.614-2.773-4.246-2.773h-.962v5.518c0,.594.255.878,2.207.878,2.944,0,4.584-.764,6.226-3.481h.68L99.132,132.3Zm-6.5,0-3.4-6.085c-.4-.735-.934-.933-2.462-.933v5.094c0,1.046.339,1.16,1.84,1.16v.764h-7.3v-.764c1.5,0,1.84-.113,1.84-1.16v-10.7c0-1.048-.339-1.16-1.84-1.16v-.764h7.3c4.7,0,6.338,2.207,6.338,4.046,0,1.811-1.414,3.029-3.764,3.17v.057a2.222,2.222,0,0,1,1.9,1.3l2.406,3.736c.876,1.386,1.3,1.472,2.15,1.472v.764Zm-5.858-7.7h1.274c1.726,0,3.282-.792,3.282-3.028,0-1.3-.736-3.057-3.735-3.057h-.821Zm53.168,7.7v-.764c1.5,0,1.84-.112,1.84-1.16v-10.7c0-1.047-.339-1.16-1.84-1.16v-.764h8.123c4.981,0,9,2.745,9,7.273,0,3.736-3.4,7.273-8.433,7.273Zm5.462-12.536v10.923c0,.481.113.849,2.038.849,4.132,0,5.66-3.452,5.66-6.2,0-5.009-2.774-6.82-5.858-6.82C132.191,118.516,131.964,118.912,131.964,119.762Zm140.568-9.7L261.157,97.188V106.8c0,1.73.539,2.1,2.213,2.1v.767h-5.276V108.9c1.446,0,2.043-.282,2.043-3.2V97.557c0-1.475-.256-1.7-1.986-1.7v-.765h5.7l8.51,9.757V97.841c0-1.73-.993-1.986-2.326-1.986v-.765h5.276v.765c-.964,0-1.929.2-1.929,2.015v12.2ZM240.8,102.379c0-5.134,4.028-7.687,7.942-7.687s7.943,2.553,7.943,7.687-4.028,7.687-7.943,7.687S240.8,107.514,240.8,102.379Zm3.97,0c0,4.566,1.248,7.006,3.972,7.006s3.971-2.44,3.971-7.006-1.248-7.006-3.971-7.006S244.771,97.813,244.771,102.379Zm-74.4,7.687c-.255-.653-.6-.993-1.106-.993-.653,0-2.553.993-5.219.993-4.709,0-8.028-3.375-8.028-7.431,0-4.511,3.234-7.943,8.425-7.943,2.156,0,3.971.765,4.822.765a1.373,1.373,0,0,0,1.106-.595h.51v4.566h-.6c-1.162-2.184-2.809-3.972-5.474-3.972-2.837,0-4.822,2.127-4.822,6.922,0,5.219,2.467,6.92,4.68,6.92,2.412,0,4.34-2.013,5.617-4.651h.6v5.418Zm57.606-.4V108.9c1.5,0,1.843-.113,1.843-1.162v-11.2a.665.665,0,0,0-.765-.765c-1.248,0-3.377,1.134-4.6,3.4l-.568-.2.88-4.283h.6a3.807,3.807,0,0,0,.68.284,2.422,2.422,0,0,0,.767.113h9.644a3.053,3.053,0,0,0,1.446-.4h.6l.879,4.283-.567.2c-1.22-2.269-3.347-3.4-4.595-3.4-.512,0-.767.227-.767.765v11.2c0,1.049.34,1.162,1.843,1.162v.767Zm-17.572,0V108.9c1.5,0,1.843-.113,1.843-1.162V97.019c0-1.05-.34-1.164-1.843-1.164v-.765h7.318v.765c-1.5,0-1.843.114-1.843,1.164v10.864c0,.738.311,1.02,1.929,1.02,3.488,0,4.793-.538,6.807-3.489h.681l-1.107,4.256Zm-6.6,0-3.4-6.1c-.4-.736-.936-.935-2.467-.935v5.106c0,1.049.34,1.162,1.843,1.162v.767H192.46V108.9c1.5,0,1.843-.113,1.843-1.162V97.017c0-1.05-.341-1.163-1.843-1.163v-.765h7.318c4.709,0,6.354,2.213,6.354,4.056,0,1.815-1.418,3.036-3.772,3.177v.057a2.23,2.23,0,0,1,1.9,1.3l2.411,3.745c.88,1.389,1.3,1.475,2.156,1.475v.767Zm-5.871-7.716h1.276c1.73,0,3.291-.794,3.291-3.034,0-1.306-.738-3.065-3.745-3.065h-.822Zm-15.107,7.716V108.9c1.53,0,1.986-.142,1.986-.623a5.517,5.517,0,0,0-1.079-2.355H177.1a4.385,4.385,0,0,0-.851,2.014c0,.566.568.963,1.986.963v.767h-5.277V108.9c1.39,0,1.958-.652,2.894-2.637l3.688-7.687a1.453,1.453,0,0,0,.227-.71.78.78,0,0,0-.454-.652,13.5,13.5,0,0,0,2.468-2.354c.113,0,.227.141.481.595l6.157,11.856c.68,1.306,1.049,1.589,2.326,1.589v.767Zm-5.39-4.6h5.9l-3.007-6.128Zm-52.117,4.6v-.511l9.134-13.3h-3.347c-1.958,0-3.717,1.107-5.39,3.319h-.51l1.362-4.085h12.509v.4l-9.219,13.5h3.574c2.1,0,3.4-.88,5.531-3.716h.6l-1.532,4.4Zm-13.141,0V108.9c1.5,0,1.843-.113,1.843-1.162v-11.2a.666.666,0,0,0-.766-.765c-1.247,0-3.375,1.134-4.595,3.4l-.567-.2.879-4.283h.6a3.859,3.859,0,0,0,.682.284,2.41,2.41,0,0,0,.765.113h9.645a3.059,3.059,0,0,0,1.446-.4h.6l.879,4.283-.567.2c-1.219-2.269-3.347-3.4-4.6-3.4a.665.665,0,0,0-.765.765v11.2c0,1.049.341,1.162,1.843,1.162v.767Zm-13.225,0V108.9c1.5,0,1.843-.113,1.843-1.162V97.019c0-1.05-.339-1.164-1.843-1.164v-.765h7.319v.765c-1.5,0-1.844.114-1.844,1.164V107.74c0,1.049.341,1.162,1.844,1.162v.767Zm-6.94,0-3.4-6.1c-.4-.736-.936-.935-2.469-.935v5.106c0,1.049.341,1.162,1.843,1.162v.767H80.667V108.9c1.5,0,1.844-.113,1.844-1.162V97.017c0-1.05-.342-1.163-1.844-1.163v-.765h7.318c4.71,0,6.354,2.213,6.354,4.056,0,1.815-1.417,3.036-3.772,3.177v.057a2.231,2.231,0,0,1,1.9,1.3l2.411,3.745c.879,1.389,1.3,1.475,2.156,1.475v.767Zm-5.873-7.716h1.277c1.73,0,3.291-.794,3.291-3.034,0-1.306-.738-3.065-3.745-3.065h-.823Zm-30.51,7.716V108.9c1.5,0,1.843-.113,1.843-1.162V97.019c0-1.05-.341-1.164-1.843-1.164v-.765H68.509l1.446,4h-.6c-2.072-2.326-3.631-3.234-6.922-3.234-1.078,0-1.332.114-1.332.937v4.935h.964c2.694,0,3.659-.794,4.255-2.949h.6v6.5h-.6c-.426-2.072-1.617-2.78-4.255-2.78h-.964v5.531c0,.6.255.879,2.213.879,2.95,0,4.595-.765,6.24-3.489h.682L69.1,109.669Zm-9.638,0V108.9c1.5,0,1.843-.113,1.843-1.162v-5.247H40.405v5.247c0,1.049.341,1.162,1.843,1.162v.767H34.93V108.9c1.5,0,1.844-.113,1.844-1.162V97.019c0-1.05-.341-1.164-1.844-1.164v-.765h7.319v.765c-1.5,0-1.843.114-1.843,1.164v4.453h7.431V97.019c0-1.05-.341-1.164-1.843-1.164v-.765h7.318v.765c-1.5,0-1.843.114-1.843,1.164V107.74c0,1.049.341,1.162,1.843,1.162v.767Zm-23.908,0V108.9c1.5,0,1.843-.113,1.843-1.162v-11.2a.666.666,0,0,0-.767-.765c-1.247,0-3.375,1.134-4.595,3.4l-.567-.2.879-4.283h.6a3.858,3.858,0,0,0,.682.284,2.41,2.41,0,0,0,.765.113h9.645a3.059,3.059,0,0,0,1.446-.4h.6l.879,4.283-.568.2c-1.219-2.269-3.347-3.4-4.6-3.4a.665.665,0,0,0-.765.765v11.2c0,1.049.341,1.162,1.843,1.162v.767Zm122.155-6.242,2.049-2.95h4.874l-2.048,2.95ZM132.427,72.7c-.407,0-.712-.2-.712-.61s.1-.508.1-1.422c0-2.237-1.219-4.065-1.625-5.489-.2-.711.711-1.117.711-1.117l-4.268-9.756.306-.1a4.99,4.99,0,0,0,3.963,1.93l.1.2c-.914.913-.711,2.947.407,2.947.711,0,1.016-.61,1.118-1.118l.2-.1a15.08,15.08,0,0,1,1.321,1.017,11.183,11.183,0,0,1-.2,1.93h-.2a.915.915,0,0,0-1.729.508,1.928,1.928,0,0,0,2.135,1.931c1.524,0,2.845-.711,2.845-2.337a2.411,2.411,0,0,0-1.525-2.235v-.2a6.119,6.119,0,0,0,1.729-2.135h.2a4.8,4.8,0,0,0,2.237,1.525v.2a2.881,2.881,0,0,0-.916,2.135c0,1.322,1.119,2.134,3.454,2.134,1.729,0,3.456-.508,3.456-2.236a1.309,1.309,0,0,0-1.321-1.422,1.8,1.8,0,0,0-1.525.812h-.2a8.224,8.224,0,0,0-1.322-1.423v-.2a7.386,7.386,0,0,0,1.322-1.525h.2a2.121,2.121,0,0,0,1.829.915.924.924,0,0,0,1.017-.915c0-.915-1.118-1.32-2.032-1.626v-.2a6.3,6.3,0,0,0,3.252-3.252h.2a6.3,6.3,0,0,0,3.252,3.252v.2c-.914.306-2.033.711-2.033,1.626a.924.924,0,0,0,1.018.915,2.121,2.121,0,0,0,1.829-.915h.2a7.309,7.309,0,0,0,1.321,1.525v.2a8.087,8.087,0,0,0-1.321,1.423h-.2a1.8,1.8,0,0,0-1.525-.812,1.309,1.309,0,0,0-1.322,1.422c0,1.727,1.729,2.236,3.455,2.236,2.339,0,3.456-.812,3.456-2.134a2.884,2.884,0,0,0-.915-2.135v-.2a4.8,4.8,0,0,0,2.236-1.525h.2a6.133,6.133,0,0,0,1.727,2.135v.2a2.411,2.411,0,0,0-1.523,2.235c0,1.626,1.32,2.337,2.845,2.337a1.926,1.926,0,0,0,2.133-1.931.914.914,0,0,0-1.726-.508h-.2a11.127,11.127,0,0,1-.2-1.93,15.245,15.245,0,0,1,1.321-1.017l.2.1c.1.508.406,1.118,1.117,1.118,1.119,0,1.322-2.033.408-2.947l.1-.2a4.993,4.993,0,0,0,3.963-1.93l.306.1-4.268,9.756s.915.407.711,1.117c-.406,1.423-1.626,3.252-1.626,5.489,0,.914.1,1.015.1,1.422s-.305.61-.711.61Zm.1-6.707,1.118,4.268s5.283.1,13.212.1,13.212-.1,13.212-.1L161.189,66a118,118,0,0,0-14.329-1.017A118.013,118.013,0,0,0,132.529,66Zm12.4,3.455a.48.48,0,0,1-.508-.508V66.506a.479.479,0,0,1,.508-.508h3.862a.481.481,0,0,1,.509.508v2.439a.481.481,0,0,1-.509.508Zm.915-1.727c0,.1.814,1.016,1.017,1.016a4.384,4.384,0,0,0,.913-1.016c0-.306-.812-1.118-.913-1.118C146.656,66.607,145.842,67.42,145.842,67.725Zm6.911,1.626a.481.481,0,0,1-.509-.508V66.607a.481.481,0,0,1,.509-.508c.814,0,2.744.1,3.964.2a.372.372,0,0,1,.406.407v2.236a.372.372,0,0,1-.406.407Zm1.017-1.626c0,.1.812,1.016,1.015,1.016a4.365,4.365,0,0,0,.915-1.016c0-.306-.812-1.118-.915-1.118C154.582,66.607,153.77,67.42,153.77,67.725ZM137,69.351a.372.372,0,0,1-.406-.407V66.708A.372.372,0,0,1,137,66.3c1.219-.1,3.151-.2,3.964-.2a.479.479,0,0,1,.507.508v2.235a.479.479,0,0,1-.507.508Zm1.016-1.626c0,.1.813,1.016,1.017,1.016a4.355,4.355,0,0,0,.915-1.016c0-.306-.812-1.118-.915-1.118C138.829,66.607,138.016,67.42,138.016,67.725Zm19.919.2c0-.2.61-.812.711-.812s.713.61.713.812a2.732,2.732,0,0,1-.713.813A2.733,2.733,0,0,1,157.936,67.928Zm-23.578,0c0-.2.61-.812.711-.812s.713.61.713.812a2.747,2.747,0,0,1-.713.813A2.733,2.733,0,0,1,134.358,67.928Zm15.754-.2c0-.2.61-.812.711-.812s.711.61.711.812a2.746,2.746,0,0,1-.711.813A2.751,2.751,0,0,1,150.111,67.725Zm-7.928,0c0-.2.611-.812.712-.812s.711.61.711.812a2.746,2.746,0,0,1-.711.813A2.757,2.757,0,0,1,142.184,67.725ZM125.822,49.534a8.162,8.162,0,0,1,.3-2.337,7.282,7.282,0,0,0,5.285,2.947c2.337,0,3.151-1.829,3.151-4.777,0-3.862-.915-7.723,3.15-11.179l.608-.508a6.2,6.2,0,0,1-1.422.306c-.61,0-1.83-1.525-2.134-2.845-.2-.712.2-1.016.913-1.525-.2-.1-.508,0-1.015,0-1.422,0-2.134-.813-3.049-.813-.711,0-1.016.1-1.321.1-.2,0-.407-.1-.407-.507a1.7,1.7,0,0,1,1.829-1.627c1.22,0,2.236.915,3.049.508a5.786,5.786,0,0,0-.813-1.321,3.6,3.6,0,0,1-.61.1c-.711,0-1.22-.508-1.729-3.558a4.556,4.556,0,0,1-.913-2.031c0-.814.608-1.118,1.523-1.626L137.2,16.1c.711-1.727,1.321-2.54,2.339-2.744a34.234,34.234,0,0,1,4.674-.508,2.8,2.8,0,0,1,2.032-1.219,18.1,18.1,0,0,0,2.032.305c.61,0,2.135-.1,2.135-.1A30.438,30.438,0,0,1,154.074,10a8.641,8.641,0,0,1,2.745,2.948c5.283.913,5.894,2.438,5.894,5.182s1.22,4.269,2.032,4.676c-.407.2-1.22-.2-1.22-.2a12.841,12.841,0,0,1,2.236,4.573l-1.626-.813a7.813,7.813,0,0,1,1.524,4.674,9.2,9.2,0,0,1-2.031,5.488,2.054,2.054,0,0,1,.407,1.422c0,3.557-3.353,5.183-3.353,8.334a3.338,3.338,0,0,0,3.556,3.353,4.884,4.884,0,0,0,2.948-1.016,4.807,4.807,0,0,1,.3,1.729c0,2.947-1.931,4.878-5.692,4.878a8.99,8.99,0,0,1-6.3-2.541c-.814,0-5.895.306-8.638-3.659,0,0-1.83,3.862-7.622,3.964a10.268,10.268,0,0,1-6.911,2.439C129.074,55.428,125.822,53.091,125.822,49.534Zm7.013,4.167a5.943,5.943,0,0,0,4.064-1.322s-1.423-.2-1.729-.711c4.067-.508,2.948-6.605,2.948-10.468,0-5.283,1.526-6.909,10.061-10.568,2.643-1.118,6.3-2.846,6.3-6.1,0-1.22-.508-3.252-4.064-5.081a4,4,0,0,1-.508-.407l-1.221-1.219c3.353-.712,7.927,1.727,7.927,5.589,0,3.659-2.337,5.692-8.028,8.233-3.862,1.727-9.044,3.353-9.044,9.552a19.829,19.829,0,0,0,.507,4.371c.1-3.456.813-9.452,6.607-10.976-3.456,6.3,0,16.26,8.333,16.26a13.6,13.6,0,0,1-6.911-10.467,11.246,11.246,0,0,0-.1,3.659,9.64,9.64,0,0,1-1.016-4.268c0-2.44.915-5.59,4.878-8.334a7.976,7.976,0,0,0-2.031,5.285,8.4,8.4,0,0,0,.406,2.643c.306-3.862,4.777-7.012,6.708-11.586a4.193,4.193,0,0,1,.1.915,4.628,4.628,0,0,1-.508,2.135,6.839,6.839,0,0,0,2.235-5.285,9.594,9.594,0,0,0-2.641-6.605c.914.508,4.674,2.947,4.674,7.114,0,2.541-1.83,6.2-6.708,9.858,3.355-.712,8.741-3.049,8.741-8.74,0-3.151-3.559-9.451-8.334-9.756.2-.711,2.134-.915,2.134-2.643,0-1.016-.61-2.134-2.439-3.659-4.166.711-4.166,2.643-4.166,2.948,0,.914.812,1.626,2.133,2.54.306.2.1.407-.1.407-.508,0-3.252-3.151-6.911-3.151a26.533,26.533,0,0,0-5.69.508,1.674,1.674,0,0,0-1.016,1.22,4.534,4.534,0,0,1,1.83-.508c.406,0,1.422.2,1.422.61h-.508c-.711,0-.914.2-.914.406a.689.689,0,0,0,.406.611c.306.1.508-.1.812-.1a.358.358,0,0,1,.1.2q0,.3-.915.915a7.47,7.47,0,0,1,1.219-.2c0,.1-.3.407-.407.508s-.711.1-1.218.306a2.99,2.99,0,0,1-1.526.2l.2-.3.408-.1c-.915.1-1.22-.1-1.423-1.219-3.862,1.829-5.895,2.947-5.895,2.947-.813.407-.1,1.221-.1,1.221l1.323-.61a.452.452,0,0,1,.3.406c0,.508-.913,1.016-.913,1.83,0,.3.406,1.93.711,1.93.2,0,.406-.2.711-.406a6.985,6.985,0,0,1,3.049-.813c.913-.812,1.321-.915,1.524-.915a1.566,1.566,0,0,1,1.119.611l3.15,2.947c1.015,1.016-.1,1.016-.1,1.016-1.932,0-2.644.407-4.474,2.236-1.117,1.117-2.539.61-2.539,1.423,0,.711,1.015,2.337,1.726,2.337a6.766,6.766,0,0,0,3.963-2.541c1.119-1.93,3.964-2.54,5.185-2.54.711,0,1.523.1,2.031.1.915,0,1.525-.508,2.033-1.931-.61.712-2.339.712-2.339.712-.711,0-.507-.2-.507-.2,1.423-.711,1.626-1.219,1.626-1.219.306-.508.2-1.727.711-2.541a2.233,2.233,0,0,1,.407,1.322,3.517,3.517,0,0,0,.3-1.322,2.433,2.433,0,0,0-.61-1.626c1.626,0,2.033,1.525,2.033,2.948,0,4.064-3.863,4.878-8.13,6.911-5.692,2.643-8.13,4.674-8.13,12.907,0,1.829.1,7.316-4.676,7.316a6.494,6.494,0,0,1-3.659-1.117C128.565,53.294,131.411,53.7,132.835,53.7Zm21.748-10.468c0,6.607,3.862,10.163,8.131,10.163a3.287,3.287,0,0,0,3.558-2.947,4.465,4.465,0,0,1-2.338.61c-4.167,0-5.793-3.659-5.793-6.81a5.217,5.217,0,0,1-1.219,2.135c.3-1.017-.2-2.135-.2-3.76,0-4.167,5.486-4.675,5.486-8.944-3.557,4.574-9.756,2.744-9.756,7.826a5.483,5.483,0,0,0,.813,2.744c.2-3.557,2.236-4.675,2.236-4.675A6.544,6.544,0,0,0,154.582,43.232Zm-15.04,7.927c2.743,0,5.385-1.423,5.385-4.572,0-2.237-1.422-5.285-1.117-8.537C140.355,41.708,143.1,47.3,139.543,51.159ZM136.9,29.411A1.315,1.315,0,0,0,137.915,29c0-.508-.61-.813-1.016-.813A2.25,2.25,0,0,0,136.9,29.411Zm-2.033-.3c1.221,0,1.526-.814,1.931-1.423.1-.1.2,0,.508.1a6.557,6.557,0,0,1,2.44-1.017,3.23,3.23,0,0,0-1.729-.508,2.333,2.333,0,0,0-1.625.611c-.508.406-1.323,1.525-2.644,1.118a11.618,11.618,0,0,0-2.032-.508c-.61,0-1.015.3-1.015.61,0,.1.1.2.3.2s.407-.1.812-.1C132.632,28.192,133.647,29.107,134.866,29.107Zm-.2-4.473a1.118,1.118,0,0,0,1.015,1.525,3.159,3.159,0,0,0-.1-1.727A5.177,5.177,0,0,0,134.663,24.634ZM157.632,16.1a16.749,16.749,0,0,1,3.76,3.354c-.711-1.727-.2-4.167-3.963-4.981A2.465,2.465,0,0,1,157.632,16.1Zm-16.464,6.3c-.3-.406-.3-.914,0-1.829h.1c.508,1.93,2.745,2.134,3.252,4.37l-.1.1C143.3,23.415,141.777,23.212,141.167,22.4Zm-7.114-1.93c0-.712.914-.915,1.422-1.017a2.288,2.288,0,0,1-.812,1.422A.833.833,0,0,1,134.054,20.468ZM153.668,16.3c-1.627-.915-1.931-1.626-1.931-2.338,0-.508.1-1.22,1.727-1.829a.1.1,0,0,1,.1.1,3.928,3.928,0,0,0-.306,1.219,1.194,1.194,0,0,0,1.118,1.119.725.725,0,0,0,.812-.712c0-.2,0-.61.2-.61a1.787,1.787,0,0,1,.407,1.118c0,1.322-1.829,2.134-1.829,2.134Z" transform="translate(-17.422 -9.433)" fill="#fff" stroke="rgba(0,0,0,0)" stroke-miterlimit="10" stroke-width="1"/>
</svg>